<mxfile host="app.diagrams.net" agent="Mozilla/5.0 (Windows NT 10.0; Win64; x64) AppleWebKit/537.36 (KHTML, like Gecko) Chrome/129.0.0.0 Safari/537.36" version="24.7.16">
  <diagram name="Page-1" id="lMFfNIUWw1upgasCF-YJ">
    <mxGraphModel dx="1101" dy="597" grid="1" gridSize="10" guides="1" tooltips="1" connect="1" arrows="1" fold="1" page="1" pageScale="1" pageWidth="850" pageHeight="1100" math="0" shadow="0">
      <root>
        <mxCell id="0" />
        <mxCell id="1" parent="0" />
        <mxCell id="nD6OWO-xkHS8rB7phgp1-2" value="&lt;p style=&quot;margin:0px;margin-top:4px;margin-left:5px;text-align:left;&quot;&gt;interaction Cancel Reservation&lt;/p&gt;" style="html=1;shape=mxgraph.sysml.package;overflow=fill;labelX=201;align=left;spacingLeft=5;verticalAlign=top;spacingTop=-3;" vertex="1" parent="1">
          <mxGeometry x="20" y="40" width="830" height="1120" as="geometry" />
        </mxCell>
        <mxCell id="nD6OWO-xkHS8rB7phgp1-3" value="&lt;u&gt;:BookingUI&lt;/u&gt;" style="rounded=0;whiteSpace=wrap;html=1;" vertex="1" parent="1">
          <mxGeometry x="310" y="240" width="130" height="80" as="geometry" />
        </mxCell>
        <mxCell id="nD6OWO-xkHS8rB7phgp1-4" value="" style="shape=umlBoundary;whiteSpace=wrap;html=1;" vertex="1" parent="1">
          <mxGeometry x="410" y="245" width="24" height="20" as="geometry" />
        </mxCell>
        <mxCell id="nD6OWO-xkHS8rB7phgp1-5" value="" style="endArrow=none;html=1;rounded=0;exitX=0;exitY=0.5;exitDx=0;exitDy=0;entryX=0.096;entryY=0.214;entryDx=0;entryDy=0;entryPerimeter=0;" edge="1" parent="1" source="nD6OWO-xkHS8rB7phgp1-3" target="nD6OWO-xkHS8rB7phgp1-2">
          <mxGeometry width="50" height="50" relative="1" as="geometry">
            <mxPoint x="330" y="290" as="sourcePoint" />
            <mxPoint x="110.32000000000005" y="280.39" as="targetPoint" />
          </mxGeometry>
        </mxCell>
        <mxCell id="nD6OWO-xkHS8rB7phgp1-6" value="" style="endArrow=classic;html=1;rounded=0;entryX=0.408;entryY=0.129;entryDx=0;entryDy=0;entryPerimeter=0;" edge="1" parent="1">
          <mxGeometry width="50" height="50" relative="1" as="geometry">
            <mxPoint x="119.92" y="268.57" as="sourcePoint" />
            <mxPoint x="279.99999999999994" y="268.85999999999996" as="targetPoint" />
          </mxGeometry>
        </mxCell>
        <mxCell id="nD6OWO-xkHS8rB7phgp1-7" value="&lt;div&gt;3.0 : Cancel Request ()&lt;/div&gt;&lt;div&gt;2.0 : Select Booking to Cancel()&lt;/div&gt;1.0 :&amp;nbsp; Navigate to Booking ()&lt;div&gt;&lt;/div&gt;" style="text;html=1;align=center;verticalAlign=middle;whiteSpace=wrap;rounded=0;" vertex="1" parent="1">
          <mxGeometry x="30" y="215" width="290" height="30" as="geometry" />
        </mxCell>
        <mxCell id="nD6OWO-xkHS8rB7phgp1-8" value="&lt;u&gt;:BookingController&lt;/u&gt;" style="rounded=0;whiteSpace=wrap;html=1;" vertex="1" parent="1">
          <mxGeometry x="680" y="240" width="130" height="80" as="geometry" />
        </mxCell>
        <mxCell id="nD6OWO-xkHS8rB7phgp1-9" value="" style="endArrow=none;html=1;rounded=0;entryX=1;entryY=0.5;entryDx=0;entryDy=0;exitX=0;exitY=0.5;exitDx=0;exitDy=0;" edge="1" parent="1" source="nD6OWO-xkHS8rB7phgp1-8" target="nD6OWO-xkHS8rB7phgp1-3">
          <mxGeometry width="50" height="50" relative="1" as="geometry">
            <mxPoint x="630" y="280" as="sourcePoint" />
            <mxPoint x="440" y="279.40999999999997" as="targetPoint" />
          </mxGeometry>
        </mxCell>
        <mxCell id="nD6OWO-xkHS8rB7phgp1-10" value="3.1 : process Cancellation ()&lt;div&gt;&lt;/div&gt;&lt;div&gt;2.1 : select the reservation ()&lt;/div&gt;&lt;div&gt;1.1 Navigate to booking ()&lt;/div&gt;" style="text;html=1;align=center;verticalAlign=middle;whiteSpace=wrap;rounded=0;" vertex="1" parent="1">
          <mxGeometry x="410" y="225" width="290" height="20" as="geometry" />
        </mxCell>
        <mxCell id="nD6OWO-xkHS8rB7phgp1-11" value="" style="endArrow=classic;html=1;rounded=0;entryX=0.783;entryY=0.205;entryDx=0;entryDy=0;entryPerimeter=0;" edge="1" parent="1" target="nD6OWO-xkHS8rB7phgp1-2">
          <mxGeometry width="50" height="50" relative="1" as="geometry">
            <mxPoint x="460" y="270" as="sourcePoint" />
            <mxPoint x="510" y="220" as="targetPoint" />
          </mxGeometry>
        </mxCell>
        <mxCell id="nD6OWO-xkHS8rB7phgp1-12" value="" style="endArrow=classic;html=1;rounded=0;exitX=0.795;exitY=0.257;exitDx=0;exitDy=0;exitPerimeter=0;" edge="1" parent="1">
          <mxGeometry width="50" height="50" relative="1" as="geometry">
            <mxPoint x="669.8500000000001" y="290.00000000000006" as="sourcePoint" />
            <mxPoint x="457.7551020408164" y="290.43" as="targetPoint" />
          </mxGeometry>
        </mxCell>
        <mxCell id="nD6OWO-xkHS8rB7phgp1-13" value="1.2 : Show Reservation ()&lt;div&gt;2.2 : Notify ()&lt;/div&gt;" style="text;html=1;align=center;verticalAlign=middle;whiteSpace=wrap;rounded=0;" vertex="1" parent="1">
          <mxGeometry x="430" y="310" width="250" height="20" as="geometry" />
        </mxCell>
        <mxCell id="nD6OWO-xkHS8rB7phgp1-14" value="&lt;u&gt;:BookingDatabase&lt;/u&gt;" style="rounded=0;whiteSpace=wrap;html=1;" vertex="1" parent="1">
          <mxGeometry x="640" y="650" width="130" height="80" as="geometry" />
        </mxCell>
        <mxCell id="nD6OWO-xkHS8rB7phgp1-15" value="" style="endArrow=none;html=1;rounded=0;entryX=0.75;entryY=1;entryDx=0;entryDy=0;exitX=0.882;exitY=-0.034;exitDx=0;exitDy=0;exitPerimeter=0;" edge="1" parent="1" source="nD6OWO-xkHS8rB7phgp1-14" target="nD6OWO-xkHS8rB7phgp1-8">
          <mxGeometry width="50" height="50" relative="1" as="geometry">
            <mxPoint x="500" y="630" as="sourcePoint" />
            <mxPoint x="480" y="410" as="targetPoint" />
          </mxGeometry>
        </mxCell>
        <mxCell id="nD6OWO-xkHS8rB7phgp1-16" value="1.1.1 : Navigate to Booking ()&lt;div&gt;2.1.1 : Fetch The reservation ()&lt;/div&gt;" style="text;html=1;align=center;verticalAlign=middle;whiteSpace=wrap;rounded=0;rotation=-90;" vertex="1" parent="1">
          <mxGeometry x="670" y="460" width="290" height="30" as="geometry" />
        </mxCell>
        <mxCell id="nD6OWO-xkHS8rB7phgp1-17" value="" style="endArrow=classic;html=1;rounded=0;exitX=0.795;exitY=0.509;exitDx=0;exitDy=0;exitPerimeter=0;" edge="1" parent="1">
          <mxGeometry width="50" height="50" relative="1" as="geometry">
            <mxPoint x="750.0000000000001" y="570.0799999999999" as="sourcePoint" />
            <mxPoint x="760" y="340" as="targetPoint" />
          </mxGeometry>
        </mxCell>
        <mxCell id="nD6OWO-xkHS8rB7phgp1-18" value="" style="endArrow=classic;html=1;rounded=0;entryX=0.88;entryY=0.482;entryDx=0;entryDy=0;entryPerimeter=0;" edge="1" parent="1">
          <mxGeometry width="50" height="50" relative="1" as="geometry">
            <mxPoint x="790" y="340" as="sourcePoint" />
            <mxPoint x="780.0000000000001" y="579.8400000000001" as="targetPoint" />
          </mxGeometry>
        </mxCell>
        <mxCell id="nD6OWO-xkHS8rB7phgp1-19" value="1.1.2 show reservation ()&lt;div&gt;2.1.2 : Return resevation Info&lt;/div&gt;" style="text;html=1;align=center;verticalAlign=middle;whiteSpace=wrap;rounded=0;rotation=-85;" vertex="1" parent="1">
          <mxGeometry x="630" y="440" width="210" height="20" as="geometry" />
        </mxCell>
        <mxCell id="nD6OWO-xkHS8rB7phgp1-20" value="" style="ellipse;shape=umlEntity;whiteSpace=wrap;html=1;" vertex="1" parent="1">
          <mxGeometry x="740" y="660" width="20" height="20" as="geometry" />
        </mxCell>
        <mxCell id="nD6OWO-xkHS8rB7phgp1-21" value="" style="ellipse;shape=umlControl;whiteSpace=wrap;html=1;" vertex="1" parent="1">
          <mxGeometry x="780" y="245" width="20" height="20" as="geometry" />
        </mxCell>
        <mxCell id="nD6OWO-xkHS8rB7phgp1-22" value="System Admin" style="shape=umlActor;html=1;verticalLabelPosition=bottom;verticalAlign=top;align=center;" vertex="1" parent="1">
          <mxGeometry x="50" y="240" width="30" height="60" as="geometry" />
        </mxCell>
        <mxCell id="nD6OWO-xkHS8rB7phgp1-26" value="&lt;u&gt;:CancellationSystem&lt;/u&gt;" style="rounded=0;whiteSpace=wrap;html=1;" vertex="1" parent="1">
          <mxGeometry x="255" y="740" width="130" height="80" as="geometry" />
        </mxCell>
        <mxCell id="nD6OWO-xkHS8rB7phgp1-27" value="&lt;u&gt;:RefundSystem&lt;/u&gt;" style="rounded=0;whiteSpace=wrap;html=1;" vertex="1" parent="1">
          <mxGeometry x="40" y="450" width="130" height="80" as="geometry" />
        </mxCell>
        <mxCell id="nD6OWO-xkHS8rB7phgp1-28" value="" style="endArrow=none;html=1;rounded=0;entryX=0.385;entryY=1;entryDx=0;entryDy=0;entryPerimeter=0;exitX=0.75;exitY=0;exitDx=0;exitDy=0;" edge="1" parent="1" source="nD6OWO-xkHS8rB7phgp1-27" target="nD6OWO-xkHS8rB7phgp1-3">
          <mxGeometry width="50" height="50" relative="1" as="geometry">
            <mxPoint x="280" y="435" as="sourcePoint" />
            <mxPoint x="330" y="385" as="targetPoint" />
          </mxGeometry>
        </mxCell>
        <mxCell id="nD6OWO-xkHS8rB7phgp1-29" value="" style="endArrow=none;html=1;rounded=0;entryX=0.5;entryY=1;entryDx=0;entryDy=0;exitX=0.25;exitY=0;exitDx=0;exitDy=0;" edge="1" parent="1" source="nD6OWO-xkHS8rB7phgp1-26" target="nD6OWO-xkHS8rB7phgp1-27">
          <mxGeometry width="50" height="50" relative="1" as="geometry">
            <mxPoint x="430" y="570" as="sourcePoint" />
            <mxPoint x="480" y="520" as="targetPoint" />
          </mxGeometry>
        </mxCell>
        <mxCell id="nD6OWO-xkHS8rB7phgp1-30" value="" style="endArrow=none;html=1;rounded=0;entryX=0.5;entryY=1;entryDx=0;entryDy=0;exitX=1;exitY=0.75;exitDx=0;exitDy=0;" edge="1" parent="1" source="nD6OWO-xkHS8rB7phgp1-26" target="nD6OWO-xkHS8rB7phgp1-14">
          <mxGeometry width="50" height="50" relative="1" as="geometry">
            <mxPoint x="430" y="570" as="sourcePoint" />
            <mxPoint x="480" y="520" as="targetPoint" />
          </mxGeometry>
        </mxCell>
        <mxCell id="nD6OWO-xkHS8rB7phgp1-31" value="" style="endArrow=none;html=1;rounded=0;entryX=0.75;entryY=1;entryDx=0;entryDy=0;exitX=0.75;exitY=0;exitDx=0;exitDy=0;" edge="1" parent="1" source="nD6OWO-xkHS8rB7phgp1-26" target="nD6OWO-xkHS8rB7phgp1-3">
          <mxGeometry width="50" height="50" relative="1" as="geometry">
            <mxPoint x="430" y="570" as="sourcePoint" />
            <mxPoint x="480" y="520" as="targetPoint" />
          </mxGeometry>
        </mxCell>
        <mxCell id="nD6OWO-xkHS8rB7phgp1-39" value="" style="ellipse;shape=umlControl;whiteSpace=wrap;html=1;" vertex="1" parent="1">
          <mxGeometry x="140" y="460" width="20" height="20" as="geometry" />
        </mxCell>
        <mxCell id="nD6OWO-xkHS8rB7phgp1-40" value="" style="ellipse;shape=umlControl;whiteSpace=wrap;html=1;" vertex="1" parent="1">
          <mxGeometry x="360" y="750" width="20" height="20" as="geometry" />
        </mxCell>
        <mxCell id="nD6OWO-xkHS8rB7phgp1-41" value="" style="endArrow=none;html=1;rounded=0;exitX=1;exitY=0;exitDx=0;exitDy=0;entryX=0.102;entryY=1.002;entryDx=0;entryDy=0;entryPerimeter=0;" edge="1" parent="1" source="nD6OWO-xkHS8rB7phgp1-26" target="nD6OWO-xkHS8rB7phgp1-8">
          <mxGeometry width="50" height="50" relative="1" as="geometry">
            <mxPoint x="430" y="570" as="sourcePoint" />
            <mxPoint x="480" y="520" as="targetPoint" />
          </mxGeometry>
        </mxCell>
        <mxCell id="nD6OWO-xkHS8rB7phgp1-42" value="3.1.1: Process Cancellation ()" style="text;html=1;align=center;verticalAlign=middle;whiteSpace=wrap;rounded=0;rotation=-55;" vertex="1" parent="1">
          <mxGeometry x="480" y="530" width="170" height="20" as="geometry" />
        </mxCell>
        <mxCell id="nD6OWO-xkHS8rB7phgp1-43" value="" style="endArrow=classic;html=1;rounded=0;exitX=0.771;exitY=0.304;exitDx=0;exitDy=0;exitPerimeter=0;entryX=0.518;entryY=0.563;entryDx=0;entryDy=0;entryPerimeter=0;" edge="1" parent="1" source="nD6OWO-xkHS8rB7phgp1-2" target="nD6OWO-xkHS8rB7phgp1-2">
          <mxGeometry width="50" height="50" relative="1" as="geometry">
            <mxPoint x="490.0000000000001" y="630.0799999999999" as="sourcePoint" />
            <mxPoint x="500" y="400" as="targetPoint" />
          </mxGeometry>
        </mxCell>
        <mxCell id="nD6OWO-xkHS8rB7phgp1-44" value="" style="endArrow=classic;html=1;rounded=0;exitX=0.253;exitY=0.589;exitDx=0;exitDy=0;exitPerimeter=0;" edge="1" parent="1" source="nD6OWO-xkHS8rB7phgp1-2">
          <mxGeometry width="50" height="50" relative="1" as="geometry">
            <mxPoint x="100.00000000000011" y="779.9999999999999" as="sourcePoint" />
            <mxPoint x="110" y="549.92" as="targetPoint" />
          </mxGeometry>
        </mxCell>
        <mxCell id="nD6OWO-xkHS8rB7phgp1-46" value="" style="endArrow=classic;html=1;rounded=0;exitX=0.5;exitY=0.688;exitDx=0;exitDy=0;exitPerimeter=0;entryX=0.747;entryY=0.643;entryDx=0;entryDy=0;entryPerimeter=0;" edge="1" parent="1" source="nD6OWO-xkHS8rB7phgp1-2" target="nD6OWO-xkHS8rB7phgp1-2">
          <mxGeometry width="50" height="50" relative="1" as="geometry">
            <mxPoint x="580" y="950.08" as="sourcePoint" />
            <mxPoint x="460" y="800" as="targetPoint" />
          </mxGeometry>
        </mxCell>
        <mxCell id="nD6OWO-xkHS8rB7phgp1-50" value="3.1.1:.1 : UpdateBooking Status" style="text;html=1;align=center;verticalAlign=middle;whiteSpace=wrap;rounded=0;rotation=-15;" vertex="1" parent="1">
          <mxGeometry x="434" y="800" width="210" height="20" as="geometry" />
        </mxCell>
        <mxCell id="nD6OWO-xkHS8rB7phgp1-51" value="4.0 : Process refund()" style="text;html=1;align=center;verticalAlign=middle;whiteSpace=wrap;rounded=0;rotation=55;" vertex="1" parent="1">
          <mxGeometry x="50" y="620" width="188.41" height="27.63" as="geometry" />
        </mxCell>
        <mxCell id="nD6OWO-xkHS8rB7phgp1-52" value="4.0 : Notify refund()" style="text;html=1;align=center;verticalAlign=middle;whiteSpace=wrap;rounded=0;rotation=-30;" vertex="1" parent="1">
          <mxGeometry x="80.8" y="350" width="188.41" height="27.63" as="geometry" />
        </mxCell>
        <mxCell id="nD6OWO-xkHS8rB7phgp1-53" value="3.1.2 : Notify success cancellation()" style="text;html=1;align=center;verticalAlign=middle;whiteSpace=wrap;rounded=0;rotation=-80;" vertex="1" parent="1">
          <mxGeometry x="238.41" y="522" width="231.82" height="27.63" as="geometry" />
        </mxCell>
      </root>
    </mxGraphModel>
  </diagram>
</mxfile>
